<svg xmlns="http://www.w3.org/2000/svg" xmlns:xlink="http://www.w3.org/1999/xlink" width="100" zoomAndPan="magnify" viewBox="0 0 75 74.999997" height="100" preserveAspectRatio="xMidYMid meet" version="1.0"><defs><clipPath id="c30b7303fd"><path d="M 18 14.65625 L 73.5 14.65625 L 73.5 61.90625 L 18 61.90625 Z M 18 14.65625 " clip-rule="nonzero"/></clipPath><clipPath id="3b5c8523fe"><path d="M 71.933594 17.1875 C 70.890625 16.261719 69.410156 15.914062 67.902344 16.230469 L 33.3125 23.566406 C 32.472656 23.742188 31.71875 24.117188 31.109375 24.640625 L 27.917969 18.695312 C 27.746094 18.347656 27.453125 18.085938 27.105469 17.941406 L 20.699219 15.101562 C 19.828125 14.722656 18.8125 15.101562 18.4375 15.972656 C 18.058594 16.839844 18.4375 17.855469 19.308594 18.234375 L 25.164062 20.84375 L 28.410156 26.871094 L 37.894531 44.183594 L 39.167969 46.558594 C 40.359375 48.675781 42.910156 50.066406 45.375 50.066406 C 45.808594 50.066406 46.214844 50.039062 46.648438 49.953125 L 54.769531 48.242188 C 54.769531 48.242188 63.265625 46.445312 66.511719 45.75 C 67.324219 45.574219 67.554688 45.949219 67.613281 46.210938 C 67.671875 46.472656 67.644531 46.90625 66.800781 47.082031 L 49.609375 50.707031 C 46.128906 51.460938 44.183594 53.925781 44.332031 57.519531 C 44.332031 57.546875 44.332031 57.578125 44.332031 57.605469 C 44.300781 57.953125 44.300781 58.332031 44.386719 58.707031 C 44.792969 60.621094 46.621094 61.839844 48.503906 61.433594 C 50.363281 61.027344 51.550781 59.171875 51.144531 57.257812 C 50.882812 56.011719 49.984375 55.054688 48.882812 54.648438 C 49.257812 54.359375 49.753906 54.15625 50.363281 54.039062 L 62.367188 51.488281 C 61.175781 52.242188 60.511719 53.691406 60.828125 55.199219 C 61.234375 57.113281 63.0625 58.332031 64.917969 57.925781 C 66.773438 57.519531 67.960938 55.664062 67.554688 53.75 C 67.238281 52.242188 66.046875 51.199219 64.628906 50.996094 L 67.46875 50.386719 C 69.0625 50.039062 69.933594 49.167969 70.367188 48.472656 C 70.949219 47.574219 71.152344 46.5 70.917969 45.429688 C 70.511719 43.488281 68.542969 41.71875 65.757812 42.328125 C 65.121094 42.472656 64.25 42.644531 63.324219 42.847656 L 45.925781 46.53125 C 44.707031 46.792969 43.082031 46.097656 42.328125 45.082031 C 42.503906 45.082031 42.675781 45.109375 42.851562 45.109375 C 43.285156 45.109375 43.691406 45.082031 44.128906 44.996094 L 66.742188 40.179688 C 69.527344 39.601562 71.933594 36.90625 72.195312 34.0625 L 73.382812 21.046875 C 73.5 19.539062 72.976562 18.117188 71.933594 17.1875 Z M 56.21875 28.816406 L 49.027344 30.351562 L 47.695312 24.03125 L 54.886719 22.496094 Z M 49.753906 33.714844 L 56.945312 32.179688 L 58.277344 38.5 L 51.085938 40.035156 Z M 68.601562 19.59375 C 68.746094 19.566406 68.859375 19.539062 69.003906 19.539062 C 69.265625 19.539062 69.5 19.59375 69.644531 19.742188 C 69.875 19.941406 69.960938 20.292969 69.933594 20.753906 L 69.46875 26.003906 L 59.609375 28.089844 L 58.277344 21.769531 Z M 33.136719 27.511719 C 33.253906 27.25 33.574219 27.046875 34.035156 26.929688 L 44.332031 24.757812 L 45.664062 31.078125 L 35.863281 33.164062 L 33.28125 28.554688 C 33.050781 28.148438 33.023438 27.773438 33.136719 27.511719 Z M 43.402344 41.660156 C 42.097656 41.921875 40.300781 41.136719 39.664062 39.949219 L 37.601562 36.265625 L 46.359375 34.410156 L 47.695312 40.730469 Z M 66.019531 36.847656 L 61.640625 37.773438 L 60.308594 31.453125 L 69.121094 29.570312 L 68.746094 33.746094 C 68.628906 35.105469 67.324219 36.585938 66.019531 36.847656 Z M 66.019531 36.847656 " clip-rule="nonzero"/></clipPath><linearGradient x1="44.698674" gradientTransform="matrix(0.289956, 0, 0, 0.289942, 0.89498, 1.995826)" y1="140.483382" x2="261.171052" gradientUnits="userSpaceOnUse" y2="92.860547" id="4a53d7ff8e"><stop stop-opacity="1" stop-color="rgb(94.898987%, 22.349548%, 10.198975%)" offset="0"/><stop stop-opacity="1" stop-color="rgb(94.898987%, 22.349548%, 10.198975%)" offset="0.125"/><stop stop-opacity="1" stop-color="rgb(94.898987%, 22.349548%, 10.198975%)" offset="0.157521"/><stop stop-opacity="1" stop-color="rgb(94.898987%, 22.349548%, 10.198975%)" offset="0.1875"/><stop stop-opacity="1" stop-color="rgb(94.898987%, 22.349548%, 10.198975%)" offset="0.21875"/><stop stop-opacity="1" stop-color="rgb(94.898987%, 22.349548%, 10.198975%)" offset="0.234375"/><stop stop-opacity="1" stop-color="rgb(94.926453%, 22.520447%, 10.150146%)" offset="0.242188"/><stop stop-opacity="1" stop-color="rgb(94.985962%, 22.900391%, 10.043335%)" offset="0.246094"/><stop stop-opacity="1" stop-color="rgb(95.019531%, 23.109436%, 9.985352%)" offset="0.25"/><stop stop-opacity="1" stop-color="rgb(95.053101%, 23.318481%, 9.925842%)" offset="0.253906"/><stop stop-opacity="1" stop-color="rgb(95.08667%, 23.529053%, 9.867859%)" offset="0.257812"/><stop stop-opacity="1" stop-color="rgb(95.118713%, 23.738098%, 9.80835%)" offset="0.261719"/><stop stop-opacity="1" stop-color="rgb(95.152283%, 23.947144%, 9.750366%)" offset="0.265625"/><stop stop-opacity="1" stop-color="rgb(95.185852%, 24.156189%, 9.690857%)" offset="0.269531"/><stop stop-opacity="1" stop-color="rgb(95.219421%, 24.36676%, 9.632874%)" offset="0.273438"/><stop stop-opacity="1" stop-color="rgb(95.251465%, 24.575806%, 9.573364%)" offset="0.277344"/><stop stop-opacity="1" stop-color="rgb(95.285034%, 24.784851%, 9.515381%)" offset="0.28125"/><stop stop-opacity="1" stop-color="rgb(95.318604%, 24.993896%, 9.455872%)" offset="0.285156"/><stop stop-opacity="1" stop-color="rgb(95.352173%, 25.204468%, 9.397888%)" offset="0.289062"/><stop stop-opacity="1" stop-color="rgb(95.384216%, 25.413513%, 9.338379%)" offset="0.292969"/><stop stop-opacity="1" stop-color="rgb(95.417786%, 25.622559%, 9.280396%)" offset="0.296875"/><stop stop-opacity="1" stop-color="rgb(95.451355%, 25.831604%, 9.222412%)" offset="0.300781"/><stop stop-opacity="1" stop-color="rgb(95.484924%, 26.042175%, 9.164429%)" offset="0.304688"/><stop stop-opacity="1" stop-color="rgb(95.516968%, 26.251221%, 9.104919%)" offset="0.308594"/><stop stop-opacity="1" stop-color="rgb(95.550537%, 26.460266%, 9.046936%)" offset="0.3125"/><stop stop-opacity="1" stop-color="rgb(95.584106%, 26.669312%, 8.987427%)" offset="0.316406"/><stop stop-opacity="1" stop-color="rgb(95.617676%, 26.879883%, 8.929443%)" offset="0.320313"/><stop stop-opacity="1" stop-color="rgb(95.649719%, 27.088928%, 8.869934%)" offset="0.324219"/><stop stop-opacity="1" stop-color="rgb(95.683289%, 27.297974%, 8.811951%)" offset="0.328125"/><stop stop-opacity="1" stop-color="rgb(95.716858%, 27.507019%, 8.752441%)" offset="0.332031"/><stop stop-opacity="1" stop-color="rgb(95.750427%, 27.71759%, 8.694458%)" offset="0.335938"/><stop stop-opacity="1" stop-color="rgb(95.783997%, 27.926636%, 8.634949%)" offset="0.339844"/><stop stop-opacity="1" stop-color="rgb(95.817566%, 28.135681%, 8.576965%)" offset="0.34375"/><stop stop-opacity="1" stop-color="rgb(95.849609%, 28.344727%, 8.517456%)" offset="0.347656"/><stop stop-opacity="1" stop-color="rgb(95.883179%, 28.555298%, 8.459473%)" offset="0.351562"/><stop stop-opacity="1" stop-color="rgb(95.916748%, 28.764343%, 8.399963%)" offset="0.355469"/><stop stop-opacity="1" stop-color="rgb(95.950317%, 28.973389%, 8.34198%)" offset="0.359375"/><stop stop-opacity="1" stop-color="rgb(95.982361%, 29.182434%, 8.282471%)" offset="0.363281"/><stop stop-opacity="1" stop-color="rgb(96.01593%, 29.391479%, 8.224487%)" offset="0.367188"/><stop stop-opacity="1" stop-color="rgb(96.0495%, 29.600525%, 8.164978%)" offset="0.371094"/><stop stop-opacity="1" stop-color="rgb(96.083069%, 29.811096%, 8.106995%)" offset="0.375"/><stop stop-opacity="1" stop-color="rgb(96.115112%, 30.020142%, 8.047485%)" offset="0.378906"/><stop stop-opacity="1" stop-color="rgb(96.148682%, 30.229187%, 7.989502%)" offset="0.382813"/><stop stop-opacity="1" stop-color="rgb(96.182251%, 30.438232%, 7.929993%)" offset="0.386719"/><stop stop-opacity="1" stop-color="rgb(96.21582%, 30.648804%, 7.872009%)" offset="0.390625"/><stop stop-opacity="1" stop-color="rgb(96.247864%, 30.857849%, 7.8125%)" offset="0.394531"/><stop stop-opacity="1" stop-color="rgb(96.281433%, 31.066895%, 7.754517%)" offset="0.398438"/><stop stop-opacity="1" stop-color="rgb(96.315002%, 31.27594%, 7.695007%)" offset="0.402344"/><stop stop-opacity="1" stop-color="rgb(96.348572%, 31.486511%, 7.637024%)" offset="0.40625"/><stop stop-opacity="1" stop-color="rgb(96.380615%, 31.695557%, 7.577515%)" offset="0.410156"/><stop stop-opacity="1" stop-color="rgb(96.414185%, 31.904602%, 7.519531%)" offset="0.414063"/><stop stop-opacity="1" stop-color="rgb(96.447754%, 32.113647%, 7.460022%)" offset="0.417969"/><stop stop-opacity="1" stop-color="rgb(96.481323%, 32.324219%, 7.402039%)" offset="0.421875"/><stop stop-opacity="1" stop-color="rgb(96.513367%, 32.533264%, 7.342529%)" offset="0.425781"/><stop stop-opacity="1" stop-color="rgb(96.546936%, 32.74231%, 7.284546%)" offset="0.429688"/><stop stop-opacity="1" stop-color="rgb(96.580505%, 32.951355%, 7.225037%)" offset="0.433594"/><stop stop-opacity="1" stop-color="rgb(96.614075%, 33.161926%, 7.167053%)" offset="0.4375"/><stop stop-opacity="1" stop-color="rgb(96.646118%, 33.370972%, 7.107544%)" offset="0.441406"/><stop stop-opacity="1" stop-color="rgb(96.679688%, 33.580017%, 7.049561%)" offset="0.445313"/><stop stop-opacity="1" stop-color="rgb(96.713257%, 33.789062%, 6.990051%)" offset="0.449219"/><stop stop-opacity="1" stop-color="rgb(96.746826%, 33.999634%, 6.932068%)" offset="0.453125"/><stop stop-opacity="1" stop-color="rgb(96.77887%, 34.208679%, 6.872559%)" offset="0.457031"/><stop stop-opacity="1" stop-color="rgb(96.812439%, 34.417725%, 6.814575%)" offset="0.460938"/><stop stop-opacity="1" stop-color="rgb(96.846008%, 34.62677%, 6.755066%)" offset="0.464844"/><stop stop-opacity="1" stop-color="rgb(96.879578%, 34.837341%, 6.697083%)" offset="0.46875"/><stop stop-opacity="1" stop-color="rgb(96.913147%, 35.046387%, 6.637573%)" offset="0.472656"/><stop stop-opacity="1" stop-color="rgb(96.946716%, 35.255432%, 6.57959%)" offset="0.476562"/><stop stop-opacity="1" stop-color="rgb(96.97876%, 35.464478%, 6.520081%)" offset="0.480469"/><stop stop-opacity="1" stop-color="rgb(97.012329%, 35.675049%, 6.462097%)" offset="0.484375"/><stop stop-opacity="1" stop-color="rgb(97.045898%, 35.884094%, 6.402588%)" offset="0.488281"/><stop stop-opacity="1" stop-color="rgb(97.079468%, 36.09314%, 6.344604%)" offset="0.492188"/><stop stop-opacity="1" stop-color="rgb(97.111511%, 36.302185%, 6.285095%)" offset="0.496094"/><stop stop-opacity="1" stop-color="rgb(97.145081%, 36.512756%, 6.227112%)" offset="0.5"/><stop stop-opacity="1" stop-color="rgb(97.17865%, 36.721802%, 6.167603%)" offset="0.503906"/><stop stop-opacity="1" stop-color="rgb(97.212219%, 36.930847%, 6.109619%)" offset="0.507812"/><stop stop-opacity="1" stop-color="rgb(97.244263%, 37.139893%, 6.05011%)" offset="0.511719"/><stop stop-opacity="1" stop-color="rgb(97.277832%, 37.350464%, 5.992126%)" offset="0.515625"/><stop stop-opacity="1" stop-color="rgb(97.311401%, 37.559509%, 5.932617%)" offset="0.519531"/><stop stop-opacity="1" stop-color="rgb(97.344971%, 37.768555%, 5.874634%)" offset="0.523438"/><stop stop-opacity="1" stop-color="rgb(97.377014%, 37.9776%, 5.815125%)" offset="0.527344"/><stop stop-opacity="1" stop-color="rgb(97.410583%, 38.188171%, 5.757141%)" offset="0.53125"/><stop stop-opacity="1" stop-color="rgb(97.444153%, 38.397217%, 5.697632%)" offset="0.535156"/><stop stop-opacity="1" stop-color="rgb(97.477722%, 38.606262%, 5.639648%)" offset="0.539062"/><stop stop-opacity="1" stop-color="rgb(97.509766%, 38.815308%, 5.580139%)" offset="0.542969"/><stop stop-opacity="1" stop-color="rgb(97.543335%, 39.025879%, 5.522156%)" offset="0.546875"/><stop stop-opacity="1" stop-color="rgb(97.576904%, 39.234924%, 5.462646%)" offset="0.550781"/><stop stop-opacity="1" stop-color="rgb(97.610474%, 39.44397%, 5.404663%)" offset="0.554688"/><stop stop-opacity="1" stop-color="rgb(97.642517%, 39.653015%, 5.345154%)" offset="0.558594"/><stop stop-opacity="1" stop-color="rgb(97.676086%, 39.863586%, 5.28717%)" offset="0.5625"/><stop stop-opacity="1" stop-color="rgb(97.709656%, 40.072632%, 5.227661%)" offset="0.566406"/><stop stop-opacity="1" stop-color="rgb(97.743225%, 40.281677%, 5.169678%)" offset="0.570312"/><stop stop-opacity="1" stop-color="rgb(97.775269%, 40.490723%, 5.110168%)" offset="0.574219"/><stop stop-opacity="1" stop-color="rgb(97.808838%, 40.701294%, 5.052185%)" offset="0.578125"/><stop stop-opacity="1" stop-color="rgb(97.842407%, 40.910339%, 4.992676%)" offset="0.582031"/><stop stop-opacity="1" stop-color="rgb(97.875977%, 41.119385%, 4.934692%)" offset="0.585938"/><stop stop-opacity="1" stop-color="rgb(97.909546%, 41.32843%, 4.875183%)" offset="0.589844"/><stop stop-opacity="1" stop-color="rgb(97.943115%, 41.539001%, 4.8172%)" offset="0.59375"/><stop stop-opacity="1" stop-color="rgb(97.975159%, 41.748047%, 4.75769%)" offset="0.597656"/><stop stop-opacity="1" stop-color="rgb(98.008728%, 41.957092%, 4.699707%)" offset="0.601563"/><stop stop-opacity="1" stop-color="rgb(98.042297%, 42.166138%, 4.640198%)" offset="0.605469"/><stop stop-opacity="1" stop-color="rgb(98.075867%, 42.376709%, 4.582214%)" offset="0.609375"/><stop stop-opacity="1" stop-color="rgb(98.10791%, 42.585754%, 4.522705%)" offset="0.613281"/><stop stop-opacity="1" stop-color="rgb(98.141479%, 42.7948%, 4.464722%)" offset="0.617188"/><stop stop-opacity="1" stop-color="rgb(98.175049%, 43.003845%, 4.405212%)" offset="0.621094"/><stop stop-opacity="1" stop-color="rgb(98.208618%, 43.214417%, 4.347229%)" offset="0.625"/><stop stop-opacity="1" stop-color="rgb(98.240662%, 43.423462%, 4.28772%)" offset="0.628906"/><stop stop-opacity="1" stop-color="rgb(98.274231%, 43.632507%, 4.229736%)" offset="0.632812"/><stop stop-opacity="1" stop-color="rgb(98.3078%, 43.841553%, 4.170227%)" offset="0.636719"/><stop stop-opacity="1" stop-color="rgb(98.34137%, 44.052124%, 4.112244%)" offset="0.640625"/><stop stop-opacity="1" stop-color="rgb(98.373413%, 44.261169%, 4.052734%)" offset="0.644531"/><stop stop-opacity="1" stop-color="rgb(98.406982%, 44.470215%, 3.994751%)" offset="0.648438"/><stop stop-opacity="1" stop-color="rgb(98.440552%, 44.67926%, 3.935242%)" offset="0.652344"/><stop stop-opacity="1" stop-color="rgb(98.474121%, 44.889832%, 3.877258%)" offset="0.65625"/><stop stop-opacity="1" stop-color="rgb(98.506165%, 45.098877%, 3.817749%)" offset="0.660156"/><stop stop-opacity="1" stop-color="rgb(98.539734%, 45.307922%, 3.759766%)" offset="0.664063"/><stop stop-opacity="1" stop-color="rgb(98.573303%, 45.516968%, 3.700256%)" offset="0.667969"/><stop stop-opacity="1" stop-color="rgb(98.606873%, 45.727539%, 3.642273%)" offset="0.671875"/><stop stop-opacity="1" stop-color="rgb(98.638916%, 45.936584%, 3.582764%)" offset="0.675781"/><stop stop-opacity="1" stop-color="rgb(98.672485%, 46.14563%, 3.52478%)" offset="0.679688"/><stop stop-opacity="1" stop-color="rgb(98.706055%, 46.354675%, 3.465271%)" offset="0.683594"/><stop stop-opacity="1" stop-color="rgb(98.739624%, 46.565247%, 3.407288%)" offset="0.6875"/><stop stop-opacity="1" stop-color="rgb(98.771667%, 46.774292%, 3.347778%)" offset="0.691406"/><stop stop-opacity="1" stop-color="rgb(98.805237%, 46.983337%, 3.289795%)" offset="0.695313"/><stop stop-opacity="1" stop-color="rgb(98.838806%, 47.192383%, 3.230286%)" offset="0.699219"/><stop stop-opacity="1" stop-color="rgb(98.872375%, 47.402954%, 3.172302%)" offset="0.703125"/><stop stop-opacity="1" stop-color="rgb(98.904419%, 47.612%, 3.112793%)" offset="0.707031"/><stop stop-opacity="1" stop-color="rgb(98.937988%, 47.821045%, 3.05481%)" offset="0.710938"/><stop stop-opacity="1" stop-color="rgb(98.971558%, 48.03009%, 2.9953%)" offset="0.714844"/><stop stop-opacity="1" stop-color="rgb(99.005127%, 48.240662%, 2.937317%)" offset="0.71875"/><stop stop-opacity="1" stop-color="rgb(99.038696%, 48.449707%, 2.877808%)" offset="0.722656"/><stop stop-opacity="1" stop-color="rgb(99.072266%, 48.658752%, 2.819824%)" offset="0.726562"/><stop stop-opacity="1" stop-color="rgb(99.104309%, 48.867798%, 2.760315%)" offset="0.730469"/><stop stop-opacity="1" stop-color="rgb(99.137878%, 49.078369%, 2.702332%)" offset="0.734375"/><stop stop-opacity="1" stop-color="rgb(99.171448%, 49.287415%, 2.642822%)" offset="0.738281"/><stop stop-opacity="1" stop-color="rgb(99.205017%, 49.49646%, 2.584839%)" offset="0.742188"/><stop stop-opacity="1" stop-color="rgb(99.237061%, 49.705505%, 2.52533%)" offset="0.746094"/><stop stop-opacity="1" stop-color="rgb(99.27063%, 49.916077%, 2.467346%)" offset="0.75"/><stop stop-opacity="1" stop-color="rgb(99.304199%, 50.125122%, 2.407837%)" offset="0.753906"/><stop stop-opacity="1" stop-color="rgb(99.337769%, 50.334167%, 2.349854%)" offset="0.757813"/><stop stop-opacity="1" stop-color="rgb(99.369812%, 50.543213%, 2.290344%)" offset="0.761719"/><stop stop-opacity="1" stop-color="rgb(99.403381%, 50.753784%, 2.232361%)" offset="0.765625"/><stop stop-opacity="1" stop-color="rgb(99.436951%, 50.96283%, 2.172852%)" offset="0.769531"/><stop stop-opacity="1" stop-color="rgb(99.47052%, 51.171875%, 2.114868%)" offset="0.773438"/><stop stop-opacity="1" stop-color="rgb(99.502563%, 51.38092%, 2.055359%)" offset="0.777344"/><stop stop-opacity="1" stop-color="rgb(99.536133%, 51.591492%, 1.997375%)" offset="0.78125"/><stop stop-opacity="1" stop-color="rgb(99.569702%, 51.800537%, 1.937866%)" offset="0.785156"/><stop stop-opacity="1" stop-color="rgb(99.603271%, 52.009583%, 1.879883%)" offset="0.789063"/><stop stop-opacity="1" stop-color="rgb(99.635315%, 52.218628%, 1.820374%)" offset="0.792969"/><stop stop-opacity="1" stop-color="rgb(99.668884%, 52.429199%, 1.76239%)" offset="0.796875"/><stop stop-opacity="1" stop-color="rgb(99.702454%, 52.638245%, 1.702881%)" offset="0.800781"/><stop stop-opacity="1" stop-color="rgb(99.736023%, 52.84729%, 1.644897%)" offset="0.804688"/><stop stop-opacity="1" stop-color="rgb(99.768066%, 53.056335%, 1.585388%)" offset="0.808594"/><stop stop-opacity="1" stop-color="rgb(99.801636%, 53.266907%, 1.527405%)" offset="0.8125"/><stop stop-opacity="1" stop-color="rgb(99.835205%, 53.475952%, 1.467896%)" offset="0.816406"/><stop stop-opacity="1" stop-color="rgb(99.868774%, 53.684998%, 1.409912%)" offset="0.820312"/><stop stop-opacity="1" stop-color="rgb(99.900818%, 53.894043%, 1.350403%)" offset="0.824219"/><stop stop-opacity="1" stop-color="rgb(99.934387%, 54.104614%, 1.292419%)" offset="0.828125"/><stop stop-opacity="1" stop-color="rgb(99.966431%, 54.30603%, 1.235962%)" offset="0.832031"/><stop stop-opacity="1" stop-color="rgb(100%, 54.508972%, 1.179504%)" offset="0.835938"/><stop stop-opacity="1" stop-color="rgb(100%, 54.508972%, 1.179504%)" offset="0.842479"/><stop stop-opacity="1" stop-color="rgb(100%, 54.508972%, 1.179504%)" offset="0.84375"/><stop stop-opacity="1" stop-color="rgb(100%, 54.508972%, 1.179504%)" offset="0.875"/><stop stop-opacity="1" stop-color="rgb(100%, 54.508972%, 1.179504%)" offset="1"/></linearGradient><clipPath id="d4ac2c3362"><path d="M 0.75 26 L 35 26 L 35 51 L 0.75 51 Z M 0.75 26 " clip-rule="nonzero"/></clipPath><clipPath id="a49f3eb437"><path d="M 2.953125 33.019531 C 2.75 32.09375 3.359375 31.164062 4.289062 30.988281 L 23.484375 26.902344 C 24.410156 26.699219 25.339844 27.308594 25.511719 28.234375 C 25.714844 29.164062 25.105469 30.089844 24.179688 30.265625 L 4.984375 34.351562 C 4.867188 34.382812 4.75 34.382812 4.636719 34.382812 C 3.824219 34.382812 3.128906 33.832031 2.953125 33.019531 Z M 14.582031 37.195312 C 14.753906 38.007812 15.480469 38.558594 16.261719 38.558594 C 16.378906 38.558594 16.496094 38.558594 16.609375 38.527344 L 27.28125 36.265625 C 28.207031 36.0625 28.816406 35.164062 28.613281 34.238281 C 28.410156 33.308594 27.511719 32.699219 26.585938 32.902344 L 15.914062 35.164062 C 14.988281 35.339844 14.378906 36.265625 14.582031 37.195312 Z M 11.042969 37.949219 C 10.839844 37.019531 9.941406 36.410156 9.015625 36.613281 L 2.285156 38.035156 C 1.359375 38.238281 0.75 39.136719 0.953125 40.066406 C 1.125 40.878906 1.851562 41.429688 2.632812 41.429688 C 2.75 41.429688 2.867188 41.429688 2.984375 41.398438 L 9.710938 39.976562 C 10.636719 39.773438 11.21875 38.875 11.042969 37.949219 Z M 31.890625 40.125 C 31.6875 39.195312 30.789062 38.585938 29.863281 38.789062 L 10.636719 42.878906 C 9.710938 43.082031 9.101562 43.980469 9.304688 44.90625 C 9.476562 45.71875 10.203125 46.269531 10.984375 46.269531 C 11.101562 46.269531 11.21875 46.269531 11.332031 46.242188 L 30.527344 42.152344 C 31.484375 41.980469 32.09375 41.050781 31.890625 40.125 Z M 32.90625 44.792969 L 20.640625 47.402344 C 19.714844 47.605469 19.105469 48.503906 19.308594 49.429688 C 19.480469 50.242188 20.207031 50.792969 20.988281 50.792969 C 21.105469 50.792969 21.222656 50.792969 21.335938 50.765625 L 33.601562 48.15625 C 34.53125 47.953125 35.140625 47.054688 34.9375 46.125 C 34.761719 45.195312 33.835938 44.589844 32.90625 44.792969 Z M 32.90625 44.792969 " clip-rule="nonzero"/></clipPath><linearGradient x1="124.790598" gradientTransform="matrix(0.289956, 0, 0, 0.289942, 0.89498, 1.995826)" y1="116.034921" x2="-5.697072" gradientUnits="userSpaceOnUse" y2="144.348299" id="185dee3910"><stop stop-opacity="1" stop-color="rgb(100%, 53.363037%, 0%)" offset="0"/><stop stop-opacity="1" stop-color="rgb(100%, 53.511047%, 0%)" offset="0.015625"/><stop stop-opacity="1" stop-color="rgb(100%, 53.807068%, 0%)" offset="0.03125"/><stop stop-opacity="1" stop-color="rgb(100%, 54.103088%, 0%)" offset="0.046875"/><stop stop-opacity="1" stop-color="rgb(100%, 54.399109%, 0%)" offset="0.0625"/><stop stop-opacity="1" stop-color="rgb(100%, 54.695129%, 0%)" offset="0.078125"/><stop stop-opacity="1" stop-color="rgb(100%, 54.99115%, 0%)" offset="0.09375"/><stop stop-opacity="1" stop-color="rgb(100%, 55.28717%, 0%)" offset="0.109375"/><stop stop-opacity="1" stop-color="rgb(100%, 55.583191%, 0%)" offset="0.125"/><stop stop-opacity="1" stop-color="rgb(100%, 55.879211%, 0%)" offset="0.131969"/><stop stop-opacity="1" stop-color="rgb(100%, 56.027222%, 0%)" offset="0.140625"/><stop stop-opacity="1" stop-color="rgb(100%, 56.175232%, 0%)" offset="0.15625"/><stop stop-opacity="1" stop-color="rgb(100%, 56.471252%, 0%)" offset="0.171875"/><stop stop-opacity="1" stop-color="rgb(100%, 56.767273%, 0%)" offset="0.1875"/><stop stop-opacity="1" stop-color="rgb(100%, 57.063293%, 0%)" offset="0.203125"/><stop stop-opacity="1" stop-color="rgb(100%, 57.359314%, 0%)" offset="0.21875"/><stop stop-opacity="1" stop-color="rgb(100%, 57.655334%, 0%)" offset="0.234375"/><stop stop-opacity="1" stop-color="rgb(100%, 57.951355%, 0%)" offset="0.25"/><stop stop-opacity="1" stop-color="rgb(100%, 58.247375%, 0%)" offset="0.265625"/><stop stop-opacity="1" stop-color="rgb(100%, 58.543396%, 0%)" offset="0.28125"/><stop stop-opacity="1" stop-color="rgb(100%, 58.839417%, 0%)" offset="0.296875"/><stop stop-opacity="1" stop-color="rgb(100%, 59.136963%, 0%)" offset="0.3125"/><stop stop-opacity="1" stop-color="rgb(100%, 59.432983%, 0%)" offset="0.328125"/><stop stop-opacity="1" stop-color="rgb(100%, 59.729004%, 0%)" offset="0.34375"/><stop stop-opacity="1" stop-color="rgb(100%, 60.025024%, 0%)" offset="0.359375"/><stop stop-opacity="1" stop-color="rgb(100%, 60.321045%, 0%)" offset="0.375"/><stop stop-opacity="1" stop-color="rgb(100%, 60.617065%, 0%)" offset="0.390625"/><stop stop-opacity="1" stop-color="rgb(100%, 60.913086%, 0%)" offset="0.40625"/><stop stop-opacity="1" stop-color="rgb(100%, 61.209106%, 0%)" offset="0.421875"/><stop stop-opacity="1" stop-color="rgb(100%, 61.505127%, 0%)" offset="0.4375"/><stop stop-opacity="1" stop-color="rgb(100%, 61.801147%, 0%)" offset="0.453125"/><stop stop-opacity="1" stop-color="rgb(100%, 62.097168%, 0%)" offset="0.46875"/><stop stop-opacity="1" stop-color="rgb(100%, 62.393188%, 0%)" offset="0.484375"/><stop stop-opacity="1" stop-color="rgb(100%, 62.689209%, 0%)" offset="0.5"/><stop stop-opacity="1" stop-color="rgb(100%, 62.985229%, 0%)" offset="0.515625"/><stop stop-opacity="1" stop-color="rgb(100%, 63.28125%, 0%)" offset="0.53125"/><stop stop-opacity="1" stop-color="rgb(100%, 63.577271%, 0%)" offset="0.546875"/><stop stop-opacity="1" stop-color="rgb(100%, 63.873291%, 0%)" offset="0.5625"/><stop stop-opacity="1" stop-color="rgb(100%, 64.169312%, 0%)" offset="0.578125"/><stop stop-opacity="1" stop-color="rgb(100%, 64.465332%, 0%)" offset="0.59375"/><stop stop-opacity="1" stop-color="rgb(100%, 64.761353%, 0%)" offset="0.609375"/><stop stop-opacity="1" stop-color="rgb(100%, 65.057373%, 0%)" offset="0.625"/><stop stop-opacity="1" stop-color="rgb(100%, 65.353394%, 0%)" offset="0.640625"/><stop stop-opacity="1" stop-color="rgb(100%, 65.649414%, 0%)" offset="0.65625"/><stop stop-opacity="1" stop-color="rgb(100%, 65.945435%, 0%)" offset="0.671875"/><stop stop-opacity="1" stop-color="rgb(100%, 66.241455%, 0%)" offset="0.6875"/><stop stop-opacity="1" stop-color="rgb(100%, 66.537476%, 0%)" offset="0.703125"/><stop stop-opacity="1" stop-color="rgb(100%, 66.833496%, 0%)" offset="0.71875"/><stop stop-opacity="1" stop-color="rgb(100%, 67.129517%, 0%)" offset="0.734375"/><stop stop-opacity="1" stop-color="rgb(100%, 67.425537%, 0%)" offset="0.75"/><stop stop-opacity="1" stop-color="rgb(100%, 67.721558%, 0%)" offset="0.765625"/><stop stop-opacity="1" stop-color="rgb(100%, 68.017578%, 0%)" offset="0.78125"/><stop stop-opacity="1" stop-color="rgb(100%, 68.313599%, 0%)" offset="0.796875"/><stop stop-opacity="1" stop-color="rgb(100%, 68.609619%, 0%)" offset="0.8125"/><stop stop-opacity="1" stop-color="rgb(100%, 68.90564%, 0%)" offset="0.828125"/><stop stop-opacity="1" stop-color="rgb(100%, 69.20166%, 0%)" offset="0.84375"/><stop stop-opacity="1" stop-color="rgb(100%, 69.497681%, 0%)" offset="0.859375"/><stop stop-opacity="1" stop-color="rgb(100%, 69.793701%, 0%)" offset="0.868031"/><stop stop-opacity="1" stop-color="rgb(100%, 69.941711%, 0%)" offset="0.875"/><stop stop-opacity="1" stop-color="rgb(100%, 70.089722%, 0%)" offset="0.890625"/><stop stop-opacity="1" stop-color="rgb(100%, 70.385742%, 0%)" offset="0.90625"/><stop stop-opacity="1" stop-color="rgb(100%, 70.681763%, 0%)" offset="0.921875"/><stop stop-opacity="1" stop-color="rgb(100%, 70.977783%, 0%)" offset="0.9375"/><stop stop-opacity="1" stop-color="rgb(100%, 71.273804%, 0%)" offset="0.953125"/><stop stop-opacity="1" stop-color="rgb(100%, 71.569824%, 0%)" offset="0.96875"/><stop stop-opacity="1" stop-color="rgb(100%, 71.865845%, 0%)" offset="0.984375"/><stop stop-opacity="1" stop-color="rgb(100%, 72.161865%, 0%)" offset="1"/></linearGradient><clipPath id="90917ca4f6"><path d="M 18 14.65625 L 73.5 14.65625 L 73.5 61.90625 L 18 61.90625 Z M 18 14.65625 " clip-rule="nonzero"/></clipPath><clipPath id="75ba3b490b"><path d="M 71.933594 17.1875 C 70.890625 16.261719 69.410156 15.914062 67.902344 16.230469 L 33.3125 23.566406 C 32.472656 23.742188 31.71875 24.117188 31.109375 24.640625 L 27.917969 18.695312 C 27.746094 18.347656 27.453125 18.085938 27.105469 17.941406 L 20.699219 15.101562 C 19.828125 14.722656 18.8125 15.101562 18.4375 15.972656 C 18.058594 16.839844 18.4375 17.855469 19.308594 18.234375 L 25.164062 20.84375 L 28.410156 26.871094 L 37.894531 44.183594 L 39.167969 46.558594 C 40.359375 48.675781 42.910156 50.066406 45.375 50.066406 C 45.808594 50.066406 46.214844 50.039062 46.648438 49.953125 L 54.769531 48.242188 C 54.769531 48.242188 63.265625 46.445312 66.511719 45.75 C 67.324219 45.574219 67.554688 45.949219 67.613281 46.210938 C 67.671875 46.472656 67.644531 46.90625 66.800781 47.082031 L 49.609375 50.707031 C 46.128906 51.460938 44.183594 53.925781 44.332031 57.519531 C 44.332031 57.546875 44.332031 57.578125 44.332031 57.605469 C 44.300781 57.953125 44.300781 58.332031 44.386719 58.707031 C 44.792969 60.621094 46.621094 61.839844 48.503906 61.433594 C 50.363281 61.027344 51.550781 59.171875 51.144531 57.257812 C 50.882812 56.011719 49.984375 55.054688 48.882812 54.648438 C 49.257812 54.359375 49.753906 54.15625 50.363281 54.039062 L 62.367188 51.488281 C 61.175781 52.242188 60.511719 53.691406 60.828125 55.199219 C 61.234375 57.113281 63.0625 58.332031 64.917969 57.925781 C 66.773438 57.519531 67.960938 55.664062 67.554688 53.75 C 67.238281 52.242188 66.046875 51.199219 64.628906 50.996094 L 67.46875 50.386719 C 69.0625 50.039062 69.933594 49.167969 70.367188 48.472656 C 70.949219 47.574219 71.152344 46.5 70.917969 45.429688 C 70.511719 43.488281 68.542969 41.71875 65.757812 42.328125 C 65.121094 42.472656 64.25 42.644531 63.324219 42.847656 L 45.925781 46.53125 C 44.707031 46.792969 43.082031 46.097656 42.328125 45.082031 C 42.503906 45.082031 42.675781 45.109375 42.851562 45.109375 C 43.285156 45.109375 43.691406 45.082031 44.128906 44.996094 L 66.742188 40.179688 C 69.527344 39.601562 71.933594 36.90625 72.195312 34.0625 L 73.382812 21.046875 C 73.5 19.539062 72.976562 18.117188 71.933594 17.1875 Z M 56.21875 28.816406 L 49.027344 30.351562 L 47.695312 24.03125 L 54.886719 22.496094 Z M 49.753906 33.714844 L 56.945312 32.179688 L 58.277344 38.5 L 51.085938 40.035156 Z M 68.601562 19.59375 C 68.746094 19.566406 68.859375 19.539062 69.003906 19.539062 C 69.265625 19.539062 69.5 19.59375 69.644531 19.742188 C 69.875 19.941406 69.960938 20.292969 69.933594 20.753906 L 69.46875 26.003906 L 59.609375 28.089844 L 58.277344 21.769531 Z M 33.136719 27.511719 C 33.253906 27.25 33.574219 27.046875 34.035156 26.929688 L 44.332031 24.757812 L 45.664062 31.078125 L 35.863281 33.164062 L 33.28125 28.554688 C 33.050781 28.148438 33.023438 27.773438 33.136719 27.511719 Z M 43.402344 41.660156 C 42.097656 41.921875 40.300781 41.136719 39.664062 39.949219 L 37.601562 36.265625 L 46.359375 34.410156 L 47.695312 40.730469 Z M 66.019531 36.847656 L 61.640625 37.773438 L 60.308594 31.453125 L 69.121094 29.570312 L 68.746094 33.746094 C 68.628906 35.105469 67.324219 36.585938 66.019531 36.847656 Z M 66.019531 36.847656 " clip-rule="nonzero"/></clipPath><clipPath id="bcc5fdfd73"><path d="M 0.75 26 L 35 26 L 35 51 L 0.75 51 Z M 0.75 26 " clip-rule="nonzero"/></clipPath><clipPath id="29e19f4249"><path d="M 2.953125 33.019531 C 2.75 32.09375 3.359375 31.164062 4.289062 30.988281 L 23.484375 26.902344 C 24.410156 26.699219 25.339844 27.308594 25.511719 28.234375 C 25.714844 29.164062 25.105469 30.089844 24.179688 30.265625 L 4.984375 34.351562 C 4.867188 34.382812 4.75 34.382812 4.636719 34.382812 C 3.824219 34.382812 3.128906 33.832031 2.953125 33.019531 Z M 14.582031 37.195312 C 14.753906 38.007812 15.480469 38.558594 16.261719 38.558594 C 16.378906 38.558594 16.496094 38.558594 16.609375 38.527344 L 27.28125 36.265625 C 28.207031 36.0625 28.816406 35.164062 28.613281 34.238281 C 28.410156 33.308594 27.511719 32.699219 26.585938 32.902344 L 15.914062 35.164062 C 14.988281 35.339844 14.378906 36.265625 14.582031 37.195312 Z M 11.042969 37.949219 C 10.839844 37.019531 9.941406 36.410156 9.015625 36.613281 L 2.285156 38.035156 C 1.359375 38.238281 0.75 39.136719 0.953125 40.066406 C 1.125 40.878906 1.851562 41.429688 2.632812 41.429688 C 2.75 41.429688 2.867188 41.429688 2.984375 41.398438 L 9.710938 39.976562 C 10.636719 39.773438 11.21875 38.875 11.042969 37.949219 Z M 31.890625 40.125 C 31.6875 39.195312 30.789062 38.585938 29.863281 38.789062 L 10.636719 42.878906 C 9.710938 43.082031 9.101562 43.980469 9.304688 44.90625 C 9.476562 45.71875 10.203125 46.269531 10.984375 46.269531 C 11.101562 46.269531 11.21875 46.269531 11.332031 46.242188 L 30.527344 42.152344 C 31.484375 41.980469 32.09375 41.050781 31.890625 40.125 Z M 32.90625 44.792969 L 20.640625 47.402344 C 19.714844 47.605469 19.105469 48.503906 19.308594 49.429688 C 19.480469 50.242188 20.207031 50.792969 20.988281 50.792969 C 21.105469 50.792969 21.222656 50.792969 21.335938 50.765625 L 33.601562 48.15625 C 34.53125 47.953125 35.140625 47.054688 34.9375 46.125 C 34.761719 45.195312 33.835938 44.589844 32.90625 44.792969 Z M 32.90625 44.792969 " clip-rule="nonzero"/></clipPath></defs><g clip-path="url(#c30b7303fd)"><g clip-path="url(#3b5c8523fe)"><path fill="url(#4a53d7ff8e)" d="M 18.058594 14.722656 L 18.058594 61.839844 L 73.5 61.839844 L 73.5 14.722656 Z M 18.058594 14.722656 " fill-rule="nonzero"/></g></g><g clip-path="url(#d4ac2c3362)"><g clip-path="url(#a49f3eb437)"><path fill="url(#185dee3910)" d="M 0.75 26.699219 L 0.75 50.792969 L 35.140625 50.792969 L 35.140625 26.699219 Z M 0.75 26.699219 " fill-rule="nonzero"/></g></g><g clip-path="url(#90917ca4f6)"><g clip-path="url(#75ba3b490b)"><path fill="url(#4a53d7ff8e)" d="M 18.058594 14.722656 L 18.058594 61.839844 L 73.5 61.839844 L 73.5 14.722656 Z M 18.058594 14.722656 " fill-rule="nonzero"/></g></g><g clip-path="url(#bcc5fdfd73)"><g clip-path="url(#29e19f4249)"><path fill="url(#185dee3910)" d="M 0.75 26.699219 L 0.75 50.792969 L 35.140625 50.792969 L 35.140625 26.699219 Z M 0.75 26.699219 " fill-rule="nonzero"/></g></g></svg>